<mxfile host="Electron" modified="2024-04-09T03:58:29.413Z" agent="Mozilla/5.0 (Windows NT 10.0; Win64; x64) AppleWebKit/537.36 (KHTML, like Gecko) draw.io/24.1.0 Chrome/120.0.6099.109 Electron/28.1.0 Safari/537.36" etag="4Wi36ZtEQZkDmZ2b_tza" version="24.1.0" type="device">
  <diagram name="Página-1" id="kDsIwDnjtc5UrCaGoq3r">
    <mxGraphModel dx="794" dy="788" grid="1" gridSize="10" guides="1" tooltips="1" connect="1" arrows="1" fold="1" page="1" pageScale="1" pageWidth="827" pageHeight="1169" math="0" shadow="0">
      <root>
        <mxCell id="0" />
        <mxCell id="1" parent="0" />
        <mxCell id="j1MFBvhrQ1oCP8wBqHsK-2" style="edgeStyle=orthogonalEdgeStyle;rounded=0;orthogonalLoop=1;jettySize=auto;html=1;" parent="1" source="j1MFBvhrQ1oCP8wBqHsK-1" edge="1">
          <mxGeometry relative="1" as="geometry">
            <mxPoint x="413.9999999999998" y="180" as="targetPoint" />
          </mxGeometry>
        </mxCell>
        <mxCell id="j1MFBvhrQ1oCP8wBqHsK-1" value="Inicio del proceso de lavado de carro" style="ellipse;whiteSpace=wrap;html=1;" parent="1" vertex="1">
          <mxGeometry x="354" y="20" width="120" height="80" as="geometry" />
        </mxCell>
        <mxCell id="j1MFBvhrQ1oCP8wBqHsK-3" style="edgeStyle=orthogonalEdgeStyle;rounded=0;orthogonalLoop=1;jettySize=auto;html=1;entryX=0.5;entryY=0;entryDx=0;entryDy=0;" parent="1" source="j1MFBvhrQ1oCP8wBqHsK-5" target="j1MFBvhrQ1oCP8wBqHsK-9" edge="1">
          <mxGeometry relative="1" as="geometry">
            <mxPoint x="560" y="310" as="targetPoint" />
          </mxGeometry>
        </mxCell>
        <mxCell id="j1MFBvhrQ1oCP8wBqHsK-4" style="edgeStyle=orthogonalEdgeStyle;rounded=0;orthogonalLoop=1;jettySize=auto;html=1;" parent="1" source="j1MFBvhrQ1oCP8wBqHsK-5" edge="1">
          <mxGeometry relative="1" as="geometry">
            <mxPoint x="340" y="380" as="targetPoint" />
            <Array as="points">
              <mxPoint x="300" y="225" />
            </Array>
          </mxGeometry>
        </mxCell>
        <mxCell id="j1MFBvhrQ1oCP8wBqHsK-5" value="El carro está afuera del garaje&amp;nbsp;" style="rhombus;whiteSpace=wrap;html=1;" parent="1" vertex="1">
          <mxGeometry x="314" y="180" width="199" height="90" as="geometry" />
        </mxCell>
        <mxCell id="j1MFBvhrQ1oCP8wBqHsK-6" value="F" style="text;html=1;align=center;verticalAlign=middle;resizable=0;points=[];autosize=1;strokeColor=none;fillColor=none;" parent="1" vertex="1">
          <mxGeometry x="414" y="270" width="30" height="30" as="geometry" />
        </mxCell>
        <mxCell id="j1MFBvhrQ1oCP8wBqHsK-7" style="edgeStyle=orthogonalEdgeStyle;rounded=0;orthogonalLoop=1;jettySize=auto;html=1;entryX=0;entryY=0.5;entryDx=0;entryDy=0;" parent="1" source="j1MFBvhrQ1oCP8wBqHsK-9" edge="1">
          <mxGeometry relative="1" as="geometry">
            <mxPoint x="690" y="380" as="targetPoint" />
          </mxGeometry>
        </mxCell>
        <mxCell id="j1MFBvhrQ1oCP8wBqHsK-8" style="edgeStyle=orthogonalEdgeStyle;rounded=0;orthogonalLoop=1;jettySize=auto;html=1;" parent="1" source="j1MFBvhrQ1oCP8wBqHsK-9" edge="1">
          <mxGeometry relative="1" as="geometry">
            <mxPoint x="414" y="490" as="targetPoint" />
          </mxGeometry>
        </mxCell>
        <mxCell id="j1MFBvhrQ1oCP8wBqHsK-9" value="El carro está sucio" style="rhombus;whiteSpace=wrap;html=1;" parent="1" vertex="1">
          <mxGeometry x="344" y="340" width="140" height="80" as="geometry" />
        </mxCell>
        <mxCell id="j1MFBvhrQ1oCP8wBqHsK-10" value="F" style="text;html=1;align=center;verticalAlign=middle;resizable=0;points=[];autosize=1;strokeColor=none;fillColor=none;" parent="1" vertex="1">
          <mxGeometry x="484" y="350" width="30" height="30" as="geometry" />
        </mxCell>
        <mxCell id="j1MFBvhrQ1oCP8wBqHsK-11" value="V" style="text;html=1;align=center;verticalAlign=middle;resizable=0;points=[];autosize=1;strokeColor=none;fillColor=none;" parent="1" vertex="1">
          <mxGeometry x="311" y="195" width="30" height="30" as="geometry" />
        </mxCell>
        <mxCell id="j1MFBvhrQ1oCP8wBqHsK-12" value="V" style="text;html=1;align=center;verticalAlign=middle;resizable=0;points=[];autosize=1;strokeColor=none;fillColor=none;" parent="1" vertex="1">
          <mxGeometry x="415" y="421" width="30" height="30" as="geometry" />
        </mxCell>
        <mxCell id="j1MFBvhrQ1oCP8wBqHsK-13" style="edgeStyle=orthogonalEdgeStyle;rounded=0;orthogonalLoop=1;jettySize=auto;html=1;entryX=0.5;entryY=0;entryDx=0;entryDy=0;" parent="1" source="j1MFBvhrQ1oCP8wBqHsK-14" target="j1MFBvhrQ1oCP8wBqHsK-17" edge="1">
          <mxGeometry relative="1" as="geometry" />
        </mxCell>
        <mxCell id="j1MFBvhrQ1oCP8wBqHsK-14" value="Verificar que estén los materiales para lavar el carro" style="rounded=1;whiteSpace=wrap;html=1;" parent="1" vertex="1">
          <mxGeometry x="354" y="490" width="120" height="60" as="geometry" />
        </mxCell>
        <mxCell id="j1MFBvhrQ1oCP8wBqHsK-15" style="edgeStyle=orthogonalEdgeStyle;rounded=0;orthogonalLoop=1;jettySize=auto;html=1;" parent="1" source="j1MFBvhrQ1oCP8wBqHsK-17" edge="1">
          <mxGeometry relative="1" as="geometry">
            <mxPoint x="480" y="700" as="targetPoint" />
          </mxGeometry>
        </mxCell>
        <mxCell id="j1MFBvhrQ1oCP8wBqHsK-16" style="edgeStyle=orthogonalEdgeStyle;rounded=0;orthogonalLoop=1;jettySize=auto;html=1;" parent="1" source="j1MFBvhrQ1oCP8wBqHsK-17" edge="1">
          <mxGeometry relative="1" as="geometry">
            <mxPoint x="280" y="780" as="targetPoint" />
          </mxGeometry>
        </mxCell>
        <mxCell id="j1MFBvhrQ1oCP8wBqHsK-17" value="Hay materiales" style="rhombus;whiteSpace=wrap;html=1;" parent="1" vertex="1">
          <mxGeometry x="374" y="600" width="80" height="80" as="geometry" />
        </mxCell>
        <mxCell id="j1MFBvhrQ1oCP8wBqHsK-18" style="edgeStyle=orthogonalEdgeStyle;rounded=0;orthogonalLoop=1;jettySize=auto;html=1;entryX=0;entryY=1;entryDx=0;entryDy=0;" parent="1" source="j1MFBvhrQ1oCP8wBqHsK-20" edge="1">
          <mxGeometry relative="1" as="geometry">
            <mxPoint x="708" y="408" as="targetPoint" />
          </mxGeometry>
        </mxCell>
        <mxCell id="j1MFBvhrQ1oCP8wBqHsK-19" style="edgeStyle=orthogonalEdgeStyle;rounded=0;orthogonalLoop=1;jettySize=auto;html=1;" parent="1" source="j1MFBvhrQ1oCP8wBqHsK-20" edge="1">
          <mxGeometry relative="1" as="geometry">
            <mxPoint x="479" y="840" as="targetPoint" />
          </mxGeometry>
        </mxCell>
        <mxCell id="j1MFBvhrQ1oCP8wBqHsK-20" value="Disponibilidad para ir a comprarlos" style="rhombus;whiteSpace=wrap;html=1;" parent="1" vertex="1">
          <mxGeometry x="394" y="700" width="170" height="80" as="geometry" />
        </mxCell>
        <mxCell id="j1MFBvhrQ1oCP8wBqHsK-21" value="F" style="text;html=1;align=center;verticalAlign=middle;resizable=0;points=[];autosize=1;strokeColor=none;fillColor=none;" parent="1" vertex="1">
          <mxGeometry x="564" y="710" width="30" height="30" as="geometry" />
        </mxCell>
        <mxCell id="j1MFBvhrQ1oCP8wBqHsK-22" value="F" style="text;html=1;align=center;verticalAlign=middle;resizable=0;points=[];autosize=1;strokeColor=none;fillColor=none;" parent="1" vertex="1">
          <mxGeometry x="452" y="609" width="30" height="30" as="geometry" />
        </mxCell>
        <mxCell id="j1MFBvhrQ1oCP8wBqHsK-23" value="V" style="text;html=1;align=center;verticalAlign=middle;resizable=0;points=[];autosize=1;strokeColor=none;fillColor=none;" parent="1" vertex="1">
          <mxGeometry x="343" y="610" width="30" height="30" as="geometry" />
        </mxCell>
        <mxCell id="j1MFBvhrQ1oCP8wBqHsK-24" style="edgeStyle=orthogonalEdgeStyle;rounded=0;orthogonalLoop=1;jettySize=auto;html=1;entryX=0.5;entryY=1;entryDx=0;entryDy=0;" parent="1" source="j1MFBvhrQ1oCP8wBqHsK-25" edge="1">
          <mxGeometry relative="1" as="geometry">
            <mxPoint x="750" y="420" as="targetPoint" />
            <Array as="points">
              <mxPoint x="284" y="940" />
              <mxPoint x="751" y="940" />
            </Array>
          </mxGeometry>
        </mxCell>
        <mxCell id="j1MFBvhrQ1oCP8wBqHsK-25" value="Preparar materiales y lavar carro" style="rounded=1;whiteSpace=wrap;html=1;" parent="1" vertex="1">
          <mxGeometry x="224" y="780" width="120" height="60" as="geometry" />
        </mxCell>
        <mxCell id="j1MFBvhrQ1oCP8wBqHsK-26" value="V" style="text;html=1;align=center;verticalAlign=middle;resizable=0;points=[];autosize=1;strokeColor=none;fillColor=none;" parent="1" vertex="1">
          <mxGeometry x="485" y="778" width="30" height="30" as="geometry" />
        </mxCell>
        <mxCell id="j1MFBvhrQ1oCP8wBqHsK-27" style="edgeStyle=orthogonalEdgeStyle;rounded=0;orthogonalLoop=1;jettySize=auto;html=1;entryX=1;entryY=0.5;entryDx=0;entryDy=0;" parent="1" source="j1MFBvhrQ1oCP8wBqHsK-28" target="j1MFBvhrQ1oCP8wBqHsK-25" edge="1">
          <mxGeometry relative="1" as="geometry" />
        </mxCell>
        <mxCell id="j1MFBvhrQ1oCP8wBqHsK-28" value="Ir a comprarlos y luego regresar" style="rounded=1;whiteSpace=wrap;html=1;" parent="1" vertex="1">
          <mxGeometry x="419" y="840" width="120" height="60" as="geometry" />
        </mxCell>
        <mxCell id="mAZ9AQqqnZxcHFOM1Hci-3" style="edgeStyle=orthogonalEdgeStyle;rounded=0;orthogonalLoop=1;jettySize=auto;html=1;entryX=0;entryY=0.5;entryDx=0;entryDy=0;" edge="1" parent="1" source="mAZ9AQqqnZxcHFOM1Hci-2" target="mAZ9AQqqnZxcHFOM1Hci-32">
          <mxGeometry relative="1" as="geometry">
            <mxPoint x="890" y="380" as="targetPoint" />
            <Array as="points">
              <mxPoint x="850" y="380" />
              <mxPoint x="850" y="150" />
            </Array>
          </mxGeometry>
        </mxCell>
        <mxCell id="mAZ9AQqqnZxcHFOM1Hci-2" value="Fin del proceso de lavado de carro" style="ellipse;whiteSpace=wrap;html=1;" vertex="1" parent="1">
          <mxGeometry x="690" y="340" width="120" height="80" as="geometry" />
        </mxCell>
        <mxCell id="mAZ9AQqqnZxcHFOM1Hci-18" style="edgeStyle=orthogonalEdgeStyle;rounded=0;orthogonalLoop=1;jettySize=auto;html=1;" edge="1" parent="1">
          <mxGeometry relative="1" as="geometry">
            <mxPoint x="1164" y="255" as="targetPoint" />
            <mxPoint x="1164" y="195" as="sourcePoint" />
          </mxGeometry>
        </mxCell>
        <mxCell id="mAZ9AQqqnZxcHFOM1Hci-19" style="edgeStyle=orthogonalEdgeStyle;rounded=0;orthogonalLoop=1;jettySize=auto;html=1;" edge="1" parent="1" source="mAZ9AQqqnZxcHFOM1Hci-21">
          <mxGeometry relative="1" as="geometry">
            <mxPoint x="1070" y="365" as="targetPoint" />
          </mxGeometry>
        </mxCell>
        <mxCell id="mAZ9AQqqnZxcHFOM1Hci-20" style="edgeStyle=orthogonalEdgeStyle;rounded=0;orthogonalLoop=1;jettySize=auto;html=1;entryX=0.5;entryY=1;entryDx=0;entryDy=0;" edge="1" parent="1" source="mAZ9AQqqnZxcHFOM1Hci-21" target="mAZ9AQqqnZxcHFOM1Hci-27">
          <mxGeometry relative="1" as="geometry">
            <mxPoint x="1260" y="365" as="targetPoint" />
            <Array as="points">
              <mxPoint x="1261" y="295" />
              <mxPoint x="1261" y="765" />
              <mxPoint x="920" y="765" />
            </Array>
          </mxGeometry>
        </mxCell>
        <mxCell id="mAZ9AQqqnZxcHFOM1Hci-21" value="El auto necesita combustible" style="rhombus;whiteSpace=wrap;html=1;" vertex="1" parent="1">
          <mxGeometry x="1091" y="255" width="146" height="80" as="geometry" />
        </mxCell>
        <mxCell id="mAZ9AQqqnZxcHFOM1Hci-22" value="V" style="text;html=1;align=center;verticalAlign=middle;resizable=0;points=[];autosize=1;strokeColor=none;fillColor=none;" vertex="1" parent="1">
          <mxGeometry x="1061" y="265" width="30" height="30" as="geometry" />
        </mxCell>
        <mxCell id="mAZ9AQqqnZxcHFOM1Hci-23" value="F" style="text;html=1;align=center;verticalAlign=middle;resizable=0;points=[];autosize=1;strokeColor=none;fillColor=none;" vertex="1" parent="1">
          <mxGeometry x="1240" y="265" width="30" height="30" as="geometry" />
        </mxCell>
        <mxCell id="mAZ9AQqqnZxcHFOM1Hci-24" style="edgeStyle=orthogonalEdgeStyle;rounded=0;orthogonalLoop=1;jettySize=auto;html=1;entryX=0.5;entryY=0;entryDx=0;entryDy=0;" edge="1" parent="1" source="mAZ9AQqqnZxcHFOM1Hci-26" target="mAZ9AQqqnZxcHFOM1Hci-27">
          <mxGeometry relative="1" as="geometry">
            <mxPoint x="870" y="475" as="targetPoint" />
          </mxGeometry>
        </mxCell>
        <mxCell id="mAZ9AQqqnZxcHFOM1Hci-25" style="edgeStyle=orthogonalEdgeStyle;rounded=0;orthogonalLoop=1;jettySize=auto;html=1;entryX=0.5;entryY=0;entryDx=0;entryDy=0;" edge="1" parent="1" source="mAZ9AQqqnZxcHFOM1Hci-26" target="mAZ9AQqqnZxcHFOM1Hci-31">
          <mxGeometry relative="1" as="geometry">
            <mxPoint x="1070" y="545" as="targetPoint" />
          </mxGeometry>
        </mxCell>
        <mxCell id="mAZ9AQqqnZxcHFOM1Hci-26" value="Hay disponibilidad económica para la gasolina" style="rhombus;whiteSpace=wrap;html=1;" vertex="1" parent="1">
          <mxGeometry x="1000" y="365" width="140" height="100" as="geometry" />
        </mxCell>
        <mxCell id="mAZ9AQqqnZxcHFOM1Hci-33" style="edgeStyle=orthogonalEdgeStyle;rounded=0;orthogonalLoop=1;jettySize=auto;html=1;" edge="1" parent="1" source="mAZ9AQqqnZxcHFOM1Hci-27">
          <mxGeometry relative="1" as="geometry">
            <mxPoint x="810" y="991" as="targetPoint" />
          </mxGeometry>
        </mxCell>
        <mxCell id="mAZ9AQqqnZxcHFOM1Hci-27" value="Fin del proceso de repostaje" style="ellipse;whiteSpace=wrap;html=1;" vertex="1" parent="1">
          <mxGeometry x="860" y="638" width="120" height="80" as="geometry" />
        </mxCell>
        <mxCell id="mAZ9AQqqnZxcHFOM1Hci-28" value="F" style="text;html=1;align=center;verticalAlign=middle;resizable=0;points=[];autosize=1;strokeColor=none;fillColor=none;" vertex="1" parent="1">
          <mxGeometry x="975" y="383" width="30" height="30" as="geometry" />
        </mxCell>
        <mxCell id="mAZ9AQqqnZxcHFOM1Hci-29" value="V" style="text;html=1;align=center;verticalAlign=middle;resizable=0;points=[];autosize=1;strokeColor=none;fillColor=none;" vertex="1" parent="1">
          <mxGeometry x="1075" y="453" width="30" height="30" as="geometry" />
        </mxCell>
        <mxCell id="mAZ9AQqqnZxcHFOM1Hci-30" style="edgeStyle=orthogonalEdgeStyle;rounded=0;orthogonalLoop=1;jettySize=auto;html=1;entryX=1;entryY=0.5;entryDx=0;entryDy=0;" edge="1" parent="1" source="mAZ9AQqqnZxcHFOM1Hci-31" target="mAZ9AQqqnZxcHFOM1Hci-27">
          <mxGeometry relative="1" as="geometry">
            <Array as="points">
              <mxPoint x="1070" y="678" />
            </Array>
          </mxGeometry>
        </mxCell>
        <mxCell id="mAZ9AQqqnZxcHFOM1Hci-31" value="Ir a la gasolinera más cercana y repostar." style="rounded=1;whiteSpace=wrap;html=1;" vertex="1" parent="1">
          <mxGeometry x="1010" y="545" width="120" height="60" as="geometry" />
        </mxCell>
        <mxCell id="mAZ9AQqqnZxcHFOM1Hci-32" value="Inicio del proceso de repostaje" style="ellipse;whiteSpace=wrap;html=1;" vertex="1" parent="1">
          <mxGeometry x="1104" y="110" width="120" height="80" as="geometry" />
        </mxCell>
        <mxCell id="mAZ9AQqqnZxcHFOM1Hci-38" style="edgeStyle=orthogonalEdgeStyle;rounded=0;orthogonalLoop=1;jettySize=auto;html=1;entryX=0.5;entryY=0;entryDx=0;entryDy=0;" edge="1" parent="1" source="mAZ9AQqqnZxcHFOM1Hci-34" target="mAZ9AQqqnZxcHFOM1Hci-36">
          <mxGeometry relative="1" as="geometry">
            <Array as="points">
              <mxPoint x="520" y="1030" />
            </Array>
          </mxGeometry>
        </mxCell>
        <mxCell id="mAZ9AQqqnZxcHFOM1Hci-40" style="edgeStyle=orthogonalEdgeStyle;rounded=0;orthogonalLoop=1;jettySize=auto;html=1;entryX=0.5;entryY=0;entryDx=0;entryDy=0;" edge="1" parent="1" source="mAZ9AQqqnZxcHFOM1Hci-34" target="mAZ9AQqqnZxcHFOM1Hci-37">
          <mxGeometry relative="1" as="geometry">
            <Array as="points">
              <mxPoint x="1070" y="1030" />
            </Array>
          </mxGeometry>
        </mxCell>
        <mxCell id="mAZ9AQqqnZxcHFOM1Hci-34" value="Inicio del proceso de viaje" style="ellipse;whiteSpace=wrap;html=1;" vertex="1" parent="1">
          <mxGeometry x="750" y="990" width="120" height="80" as="geometry" />
        </mxCell>
        <mxCell id="mAZ9AQqqnZxcHFOM1Hci-41" style="edgeStyle=orthogonalEdgeStyle;rounded=0;orthogonalLoop=1;jettySize=auto;html=1;" edge="1" parent="1" source="mAZ9AQqqnZxcHFOM1Hci-36">
          <mxGeometry relative="1" as="geometry">
            <mxPoint x="520" y="1360" as="targetPoint" />
          </mxGeometry>
        </mxCell>
        <mxCell id="mAZ9AQqqnZxcHFOM1Hci-36" value="Camino: Ruta interamericana" style="shape=parallelogram;perimeter=parallelogramPerimeter;whiteSpace=wrap;html=1;fixedSize=1;" vertex="1" parent="1">
          <mxGeometry x="460" y="1220" width="120" height="60" as="geometry" />
        </mxCell>
        <mxCell id="mAZ9AQqqnZxcHFOM1Hci-50" style="edgeStyle=orthogonalEdgeStyle;rounded=0;orthogonalLoop=1;jettySize=auto;html=1;" edge="1" parent="1" source="mAZ9AQqqnZxcHFOM1Hci-37">
          <mxGeometry relative="1" as="geometry">
            <mxPoint x="1070" y="1350" as="targetPoint" />
          </mxGeometry>
        </mxCell>
        <mxCell id="mAZ9AQqqnZxcHFOM1Hci-37" value="Camino: Costa sur" style="shape=parallelogram;perimeter=parallelogramPerimeter;whiteSpace=wrap;html=1;fixedSize=1;" vertex="1" parent="1">
          <mxGeometry x="995" y="1220" width="150" height="60" as="geometry" />
        </mxCell>
        <mxCell id="mAZ9AQqqnZxcHFOM1Hci-44" style="edgeStyle=orthogonalEdgeStyle;rounded=0;orthogonalLoop=1;jettySize=auto;html=1;entryX=0.5;entryY=0;entryDx=0;entryDy=0;" edge="1" parent="1" source="mAZ9AQqqnZxcHFOM1Hci-42" target="mAZ9AQqqnZxcHFOM1Hci-43">
          <mxGeometry relative="1" as="geometry" />
        </mxCell>
        <mxCell id="mAZ9AQqqnZxcHFOM1Hci-42" value="Buscar la salida que conduce a Salcajá" style="rounded=1;whiteSpace=wrap;html=1;" vertex="1" parent="1">
          <mxGeometry x="460" y="1360" width="120" height="60" as="geometry" />
        </mxCell>
        <mxCell id="mAZ9AQqqnZxcHFOM1Hci-46" style="edgeStyle=orthogonalEdgeStyle;rounded=0;orthogonalLoop=1;jettySize=auto;html=1;" edge="1" parent="1" source="mAZ9AQqqnZxcHFOM1Hci-43">
          <mxGeometry relative="1" as="geometry">
            <mxPoint x="520" y="1600" as="targetPoint" />
          </mxGeometry>
        </mxCell>
        <mxCell id="mAZ9AQqqnZxcHFOM1Hci-43" value="Pasar por el monumento al Migrante&amp;nbsp;" style="rounded=1;whiteSpace=wrap;html=1;" vertex="1" parent="1">
          <mxGeometry x="460" y="1460" width="120" height="60" as="geometry" />
        </mxCell>
        <mxCell id="mAZ9AQqqnZxcHFOM1Hci-59" style="edgeStyle=orthogonalEdgeStyle;rounded=0;orthogonalLoop=1;jettySize=auto;html=1;entryX=0;entryY=0.5;entryDx=0;entryDy=0;" edge="1" parent="1" source="mAZ9AQqqnZxcHFOM1Hci-45" target="mAZ9AQqqnZxcHFOM1Hci-58">
          <mxGeometry relative="1" as="geometry">
            <Array as="points">
              <mxPoint x="520" y="1920" />
            </Array>
          </mxGeometry>
        </mxCell>
        <mxCell id="mAZ9AQqqnZxcHFOM1Hci-45" value="Tomar ruta interamericana que conduce hasta la ciudad capital" style="rounded=1;whiteSpace=wrap;html=1;" vertex="1" parent="1">
          <mxGeometry x="460" y="1740" width="120" height="80" as="geometry" />
        </mxCell>
        <mxCell id="mAZ9AQqqnZxcHFOM1Hci-48" style="edgeStyle=orthogonalEdgeStyle;rounded=0;orthogonalLoop=1;jettySize=auto;html=1;" edge="1" parent="1" source="mAZ9AQqqnZxcHFOM1Hci-47" target="mAZ9AQqqnZxcHFOM1Hci-45">
          <mxGeometry relative="1" as="geometry" />
        </mxCell>
        <mxCell id="mAZ9AQqqnZxcHFOM1Hci-47" value="Llegar a Cuatro Caminos" style="rounded=1;whiteSpace=wrap;html=1;" vertex="1" parent="1">
          <mxGeometry x="460" y="1600" width="120" height="60" as="geometry" />
        </mxCell>
        <mxCell id="mAZ9AQqqnZxcHFOM1Hci-52" style="edgeStyle=orthogonalEdgeStyle;rounded=0;orthogonalLoop=1;jettySize=auto;html=1;" edge="1" parent="1" source="mAZ9AQqqnZxcHFOM1Hci-51">
          <mxGeometry relative="1" as="geometry">
            <mxPoint x="1070" y="1480" as="targetPoint" />
          </mxGeometry>
        </mxCell>
        <mxCell id="mAZ9AQqqnZxcHFOM1Hci-51" value="Buscar la salida que conduce a Almolonga" style="rounded=1;whiteSpace=wrap;html=1;" vertex="1" parent="1">
          <mxGeometry x="1005" y="1350" width="130" height="60" as="geometry" />
        </mxCell>
        <mxCell id="mAZ9AQqqnZxcHFOM1Hci-54" style="edgeStyle=orthogonalEdgeStyle;rounded=0;orthogonalLoop=1;jettySize=auto;html=1;" edge="1" parent="1" source="mAZ9AQqqnZxcHFOM1Hci-53">
          <mxGeometry relative="1" as="geometry">
            <mxPoint x="1070" y="1620" as="targetPoint" />
          </mxGeometry>
        </mxCell>
        <mxCell id="mAZ9AQqqnZxcHFOM1Hci-53" value="Pasar por el Túnel de Santa María" style="rounded=1;whiteSpace=wrap;html=1;" vertex="1" parent="1">
          <mxGeometry x="1010" y="1480" width="120" height="60" as="geometry" />
        </mxCell>
        <mxCell id="mAZ9AQqqnZxcHFOM1Hci-57" value="" style="edgeStyle=orthogonalEdgeStyle;rounded=0;orthogonalLoop=1;jettySize=auto;html=1;" edge="1" parent="1" source="mAZ9AQqqnZxcHFOM1Hci-55" target="mAZ9AQqqnZxcHFOM1Hci-56">
          <mxGeometry relative="1" as="geometry" />
        </mxCell>
        <mxCell id="mAZ9AQqqnZxcHFOM1Hci-55" value="Llegar al Zarco" style="rounded=1;whiteSpace=wrap;html=1;" vertex="1" parent="1">
          <mxGeometry x="1010" y="1620" width="120" height="60" as="geometry" />
        </mxCell>
        <mxCell id="mAZ9AQqqnZxcHFOM1Hci-60" style="edgeStyle=orthogonalEdgeStyle;rounded=0;orthogonalLoop=1;jettySize=auto;html=1;entryX=1;entryY=0.5;entryDx=0;entryDy=0;" edge="1" parent="1" source="mAZ9AQqqnZxcHFOM1Hci-56" target="mAZ9AQqqnZxcHFOM1Hci-58">
          <mxGeometry relative="1" as="geometry">
            <Array as="points">
              <mxPoint x="1070" y="1920" />
            </Array>
          </mxGeometry>
        </mxCell>
        <mxCell id="mAZ9AQqqnZxcHFOM1Hci-56" value="Tomar la ruta CA-9 que conduce hasta la ciudad capital" style="rounded=1;whiteSpace=wrap;html=1;" vertex="1" parent="1">
          <mxGeometry x="1010" y="1760" width="120" height="60" as="geometry" />
        </mxCell>
        <mxCell id="mAZ9AQqqnZxcHFOM1Hci-58" value="Fin" style="ellipse;whiteSpace=wrap;html=1;" vertex="1" parent="1">
          <mxGeometry x="760" y="1880" width="120" height="80" as="geometry" />
        </mxCell>
      </root>
    </mxGraphModel>
  </diagram>
</mxfile>
